<svg width="150" height="120" viewBox="0 0 150 120" fill="none" xmlns="http://www.w3.org/2000/svg">
<path fill-rule="evenodd" clip-rule="evenodd" d="M28.2119 0.262977C27.3732 0.481194 27.3939 0.50183 28.6856 0.736347C30.8709 1.1332 32.6467 2.63676 33.5661 4.8685L34.3514 6.77524L34.4358 29.8081L34.52 52.8407L35.1667 52.983C35.5222 53.0616 36.7997 53.3067 38.0057 53.5283C39.2117 53.7501 41.4481 54.3592 42.9757 54.8821C44.5032 55.4054 45.8478 55.8349 45.9633 55.8372C46.0791 55.8392 46.2106 44.8012 46.2556 31.308L46.3378 6.77524L47.0067 5.1243C47.3748 4.21617 47.901 3.18962 48.1761 2.84333C48.8871 1.94884 50.6134 1.00811 52.0117 0.75397C52.6698 0.634217 53.2081 0.405695 53.2081 0.246024C53.2081 -0.0926116 29.5164 -0.0766564 28.2119 0.262977ZM73.965 6.24065C73.965 8.45775 73.827 8.6048 71.7484 8.6048C70.5083 8.6048 70.4568 8.64438 70.4568 9.60274V10.6007H72.2109H73.965V14.5562V18.5114L72.1671 21.625C71.1781 23.3371 69.5336 26.2897 68.5127 28.1861L66.6562 31.634L66.6527 37.1676L66.6493 42.7012L63.4532 45.4955C61.6956 47.0323 59.7757 48.8512 59.1866 49.5375L58.1161 50.7852L57.9965 54.7268C57.9307 56.8947 57.955 59.6453 58.0506 60.8395C58.226 63.0327 58.4821 63.4412 60.2976 64.4261C60.418 64.4917 60.5169 62.0065 60.5169 58.9039C60.5169 55.8012 60.5947 52.8324 60.6894 52.3064C60.8236 51.5626 61.7871 50.5368 65.0249 47.691L69.1877 44.0318L69.3602 38.4939L69.5324 32.9563L72.243 28.6365L74.9538 24.3171L77.1204 27.8541C78.312 29.7995 79.5367 31.7002 79.8419 32.0778C80.3418 32.6968 80.3968 33.3302 80.3968 38.4813C80.3968 41.6258 80.4953 44.1988 80.6161 44.1995C80.7368 44.2001 82.6771 45.8132 84.9282 47.7838L89.0212 51.3671L89.1673 57.0121L89.3135 62.6571L90.556 60.6629L91.7985 58.6683V54.8047C91.7985 50.0947 91.9698 50.4017 86.8008 45.8368L83.028 42.505V36.8177V31.1301L79.3736 24.6793L75.7192 18.229V14.4148V10.6007H77.6194H79.5197V9.6187C79.5197 8.64637 79.5016 8.63539 77.6925 8.53759L75.8653 8.43847L75.7782 6.35943C75.6922 4.301 75.6826 4.28038 74.828 4.28038C73.97 4.28038 73.965 4.29133 73.965 6.24065ZM94.4577 16.5564C93.3462 17.8211 90.6581 24.825 90.2324 27.5657L90.0514 28.73L90.9258 27.5657C91.8239 26.3699 94.8592 20.9444 95.7301 18.9781C96.6946 16.8009 95.7771 15.0552 94.4577 16.5564ZM128.927 17.2633C124.867 17.8996 121.002 20.1034 117.474 23.7942C112.992 28.4822 109.898 33.1369 99.6412 50.6242C91.0656 65.2441 87.8336 70.5988 84.2438 76.1324C81.2507 80.7462 76.5819 87.4454 75.9483 88.0355C75.5507 88.4054 75.3341 88.1383 74.3135 86.0226C71.8604 80.9368 66.9144 74.338 62.4171 70.1503C49.7171 58.325 34.1567 53.2731 20.9032 56.6725C14.018 58.4388 7.6392 63.1518 4.21897 69.0004C1.15191 74.2456 0 78.72 0 85.3899C0 93.5129 2.55751 100.524 7.70086 106.5C11.8587 111.332 17.6297 114.765 24.4114 116.441C27.2434 117.141 38.1177 117.025 41.2216 116.261C52.1286 113.579 61.9312 107.437 70.9395 97.6407C72.7325 95.6907 74.2597 94.0953 74.3334 94.0953C74.7295 94.0953 75.1958 99.435 75.0654 102.479C74.7631 109.521 71.7522 114.516 67.5315 114.977C66.7287 115.065 66.0715 115.288 66.0715 115.474C66.0715 116.05 68.8933 115.474 70.774 114.514C76.0165 111.837 78.6216 103.135 76.9371 93.929L76.45 91.2678L79.4773 87.1097C85.0142 79.5047 88.7274 73.5091 101.533 51.4948C109.113 38.4656 113.34 31.8818 116.68 27.9044L118.771 25.4155L117.751 27.738C115.262 33.4054 113.755 41.2652 112.682 54.1776C112.317 58.5689 112.145 65.8013 111.983 83.6169C111.749 109.342 111.718 109.797 110.041 112.298C109.244 113.487 107.395 114.72 106.409 114.72C105.581 114.72 104.604 115.342 104.817 115.734C104.918 115.92 107.966 116.051 112.207 116.051C120.409 116.053 122.066 116.282 129.073 118.388C133.212 119.631 134.223 119.811 137.844 119.95C140.965 120.071 142.41 119.982 143.929 119.576C146.276 118.949 148.815 117.602 149.722 116.503C150.279 115.828 150.087 115.884 148.323 116.914C144.112 119.373 138.649 119.182 133.724 116.406C126.841 112.525 123.755 105.567 122.804 91.7834C122.135 82.0784 122.537 55.4393 123.54 43.0339C124.61 29.8048 126.186 23.5806 129.263 20.4331C130.806 18.8533 132.821 17.9276 134.754 17.909C135.555 17.901 135.687 17.8251 135.321 17.5823C134.602 17.1039 131.069 16.9276 128.927 17.2633ZM103.747 28.6468C102.757 29.6072 101.227 31.3267 100.347 32.4676C99.0521 34.1462 98.8375 34.5819 99.2237 34.7506C99.7613 34.9854 101.917 33.5917 104.752 31.176C106.767 29.4588 107.538 28.1356 106.974 27.3622C106.378 26.5458 105.586 26.8615 103.747 28.6468ZM85.9533 36.2978L85.9547 41.038L89.293 43.9673C93.305 47.488 94.1537 48.663 94.5682 51.2712L94.8775 53.2179L97.431 48.9327C100.25 44.2022 100.476 43.2814 99.5023 40.5121C98.5882 37.9121 92.8857 33.6206 88.3101 32.0891C85.7988 31.2485 85.9512 30.9761 85.9533 36.2978ZM60.3915 34.076C59.6942 34.8697 59.8132 35.4977 61.3208 38.9709C62.6376 42.0047 62.7391 42.1447 63.2808 41.684C63.8465 41.203 63.8456 41.1667 63.2106 37.958C62.7572 35.6677 62.3873 34.547 61.9491 34.1355C61.1869 33.42 60.9756 33.4117 60.3915 34.076ZM73.8396 34.076C73.4871 34.4775 73.3803 35.3274 73.3803 37.7351V40.8717H74.8421H76.3039V37.5568C76.3039 34.6202 76.2392 34.2027 75.7384 33.8977C74.9453 33.4147 74.3738 33.4686 73.8396 34.076ZM54.671 40.7037C54.3786 41.1045 54.4015 41.3626 54.7879 42.0339C55.4022 43.1007 59.0899 45.25 59.6409 44.8624C60.1175 44.5275 59.9377 44.2078 57.9132 41.7864C56.5154 40.1149 55.3776 39.7347 54.671 40.7037ZM50.8795 47.17C50.5491 47.8726 50.4748 53.6617 50.7613 56.3751C50.9405 58.0733 50.9409 58.0732 52.9134 59.2857C53.9983 59.9524 54.9596 60.4979 55.0496 60.4979C55.1397 60.4979 55.2554 58.1897 55.3071 55.3685C55.394 50.6017 55.4489 50.1645 56.0842 49.1882C56.4602 48.6104 56.6844 48.0426 56.5824 47.9268C56.117 47.3969 53.5267 46.5273 52.4143 46.527C51.4952 46.5267 51.1052 46.69 50.8795 47.17ZM72.4734 55.9307C70.6544 57.3132 70.4405 58.2722 70.5267 64.656L70.603 70.311H74.8421H79.0812V64.0496V57.7878L77.8501 56.4819C76.733 55.2966 76.4725 55.1756 75.0429 55.1756C73.8911 55.1756 73.1994 55.3788 72.4734 55.9307ZM35.5351 57.5067C46.8374 59.7055 58.3114 67.6911 66.8016 79.2679C68.8346 82.0405 71.9905 87.456 72.8275 89.6089L73.4335 91.168L72.603 92.1723C63.3936 103.306 51.3226 110.951 39.5853 113.082C36.2791 113.683 29.3551 113.6 26.2313 112.923C11.8681 109.808 2.37506 98.2694 2.34524 83.888C2.32302 73.2496 7.48451 64.2162 16.1899 59.6576C21.3592 56.9505 28.5598 56.1502 35.5351 57.5067ZM34.4232 73.7207C34.342 84.6904 34.2034 89.6365 33.9529 90.5091C33.2182 93.0701 31.2869 94.7304 28.4312 95.2556C25.0525 95.8777 28.0994 96.0912 40.3445 96.0912C47.5802 96.0912 53.5004 95.9715 53.5004 95.8251C53.5004 95.6787 52.728 95.3774 51.784 95.1558C49.3776 94.59 48.255 93.6349 47.2149 91.2678L46.3378 89.2719L46.1916 75.4977L46.0454 61.7234L42.8345 60.4244C39.787 59.1916 36.2733 58.1694 35.0837 58.1694C34.5612 58.1694 34.5338 58.815 34.4232 73.7207Z" fill="url(#paint0_linear_4_46)"/>
<defs>
<linearGradient id="paint0_linear_4_46" x1="-125.156" y1="60" x2="269.062" y2="73.125" gradientUnits="userSpaceOnUse">
<stop offset="0.399038" stop-color="#FF7700"/>
<stop offset="0.625" stop-color="#E7376F"/>
</linearGradient>
</defs>
</svg>
